# xmcd
#
# Track frame offsets:
#	150
#	53440
#	64843
#	128372
#	139142
#	175302
#	193855
#	225862
#	247530
#
# Disc length: 3799 seconds
#
# Revision: 1
# Processed by: cddbd v1.5.2PL0 Copyright (c) Steve Scherf et al.
# Submitted via: EasyCDDAExtractor 11.9.9.666
#
DISCID=680ed509
DTITLE=SANTANA - EL CORAZON MANDA
DYEAR=1900
DGENRE=Blues
TTITLE0=EL CORAZON MANDA
TTITLE1=ACAPULCO SUNRISE
TTITLE2=JUST AIN´T GOOD ENOUGH
TTITLE3=COCOUNT GROVE
TTITLE4=HOT TAMALES
TTITLE5=WITH A LITTLE HELP FROM MY FRIENDS
TTITLE6=EVERYDAY I HAVE THE BLUES
TTITLE7=TRAVELIN´ BLUES
TTITLE8=JAMMIN´ HOME
EXTD=
EXTT0=
EXTT1=
EXTT2=
EXTT3=
EXTT4=
EXTT5=
EXTT6=
EXTT7=
EXTT8=
PLAYORDER=
